<svg width="1160" height="882" viewBox="0 0 1160 882" fill="none" xmlns="http://www.w3.org/2000/svg">
<g clip-path="url(#clip0_426_18)">
<path d="M1867 -152H-133V1348H1867V-152Z" fill="#310365"/>
<path d="M-133 2908C1523.85 2908 2867 1564.85 2867 -92C2867 -1748.85 1523.85 -3092 -133 -3092C-1789.85 -3092 -3133 -1748.85 -3133 -92C-3133 1564.85 -1789.85 2908 -133 2908Z" fill="url(#paint0_radial_426_18)"/>
<g opacity="0.5">
<path d="M-133 1908C971.57 1908 1867 1012.57 1867 -92C1867 -1196.57 971.57 -2092 -133 -2092C-1237.57 -2092 -2133 -1196.57 -2133 -92C-2133 1012.57 -1237.57 1908 -133 1908Z" fill="url(#paint1_radial_426_18)"/>
<path d="M-133 1708C861.113 1708 1667 902.113 1667 -92C1667 -1086.11 861.113 -1892 -133 -1892C-1127.11 -1892 -1933 -1086.11 -1933 -92C-1933 902.113 -1127.11 1708 -133 1708Z" fill="url(#paint2_radial_426_18)"/>
<path d="M-133 1608C805.884 1608 1567 846.884 1567 -92C1567 -1030.88 805.884 -1792 -133 -1792C-1071.88 -1792 -1833 -1030.88 -1833 -92C-1833 846.884 -1071.88 1608 -133 1608Z" fill="url(#paint3_radial_426_18)"/>
<path d="M-133 1559C778.823 1559 1518 819.822 1518 -92C1518 -1003.82 778.823 -1743 -133 -1743C-1044.82 -1743 -1784 -1003.82 -1784 -92C-1784 819.822 -1044.82 1559 -133 1559Z" fill="url(#paint4_radial_426_18)"/>
<path d="M-133 1358C667.813 1358 1317 708.813 1317 -92C1317 -892.813 667.813 -1542 -133 -1542C-933.813 -1542 -1583 -892.813 -1583 -92C-1583 708.813 -933.813 1358 -133 1358Z" fill="url(#paint5_radial_426_18)"/>
<path d="M-133 1158C557.356 1158 1117 598.356 1117 -92C1117 -782.356 557.356 -1342 -133 -1342C-823.356 -1342 -1383 -782.356 -1383 -92C-1383 598.356 -823.356 1158 -133 1158Z" fill="url(#paint6_radial_426_18)"/>
<path d="M-133 1083C515.935 1083 1042 556.935 1042 -92C1042 -740.935 515.935 -1267 -133 -1267C-781.934 -1267 -1308 -740.935 -1308 -92C-1308 556.935 -781.934 1083 -133 1083Z" fill="url(#paint7_radial_426_18)"/>
<path d="M-133 808C364.057 808 767 405.056 767 -92C767 -589.056 364.057 -992 -133 -992C-630.056 -992 -1033 -589.056 -1033 -92C-1033 405.056 -630.056 808 -133 808Z" fill="url(#paint8_radial_426_18)"/>
<path d="M-133 658C281.214 658 617 322.214 617 -92C617 -506.214 281.214 -842 -133 -842C-547.213 -842 -883 -506.214 -883 -92C-883 322.214 -547.213 658 -133 658Z" fill="url(#paint9_radial_426_18)"/>
<path d="M-133 408C143.143 408 367 184.142 367 -92C367 -368.142 143.143 -592 -133 -592C-409.142 -592 -633 -368.142 -633 -92C-633 184.142 -409.142 408 -133 408Z" fill="url(#paint10_radial_426_18)"/>
<path d="M-133 288C76.8685 288 247 117.868 247 -92C247 -301.868 76.8685 -472 -133 -472C-342.868 -472 -513 -301.868 -513 -92C-513 117.868 -342.868 288 -133 288Z" fill="url(#paint11_radial_426_18)"/>
<path d="M-133 158C5.07141 158 117 46.0712 117 -92C117 -230.071 5.07141 -342 -133 -342C-271.071 -342 -383 -230.071 -383 -92C-383 46.0712 -271.071 158 -133 158Z" fill="url(#paint12_radial_426_18)"/>
</g>
<path d="M29.8547 -181.872C35.3873 -171.325 39.9142 -160.263 43.3391 -148.893C46.7537 -137.517 49.0603 -125.844 50.2223 -114.075C51.3844 -102.306 51.3958 -90.452 50.2942 -78.7308C49.1823 -67.0034 46.9512 -55.4192 43.6407 -44.1694C40.3302 -32.9196 35.9505 -22.0103 30.5947 -11.6369C25.2287 -1.25732 18.8805 8.57613 11.6556 17.6888C4.4307 26.8016 -3.66476 35.2038 -12.4657 42.7274C-21.2872 50.2632 -30.8038 56.9142 -40.8322 62.613C-31.0557 56.4916 -21.8796 49.4569 -13.4791 41.6132C-5.07247 33.7798 2.54826 25.1436 9.25085 15.8812C15.9638 6.61269 21.7585 -3.28202 26.542 -13.6077C31.3358 -23.9395 35.1224 -34.7188 37.8375 -45.7254C40.5629 -56.7381 42.2209 -67.9947 42.7964 -79.2626C43.3761 -90.547 42.8671 -101.853 41.2731 -112.987C39.6791 -124.121 37.0227 -135.069 33.3444 -145.645C29.6661 -156.222 24.9619 -166.41 19.3506 -176.057C17.6856 -178.921 18.7495 -182.503 21.6128 -184.168C24.4762 -185.832 28.0546 -184.962 29.7257 -182.088C29.7687 -182.016 29.8056 -181.954 29.8383 -181.876L29.8547 -181.872Z" fill="url(#paint13_linear_426_18)"/>
<path d="M121.782 -383.983C140.128 -367.278 156.872 -348.847 171.679 -329.029C186.469 -309.191 199.303 -287.981 209.963 -265.77C220.624 -243.558 229.093 -220.359 235.288 -196.628C241.468 -172.877 245.354 -148.609 246.889 -124.226C248.424 -99.8438 247.623 -75.3661 244.53 -51.242C241.421 -27.0984 236 -3.32417 228.349 19.6638C220.698 42.6517 210.836 64.8691 198.968 85.869C187.068 106.908 173.176 126.709 157.604 145.011C172.382 126.061 185.333 105.751 196.19 84.4098C207.066 63.0844 215.831 40.7473 222.353 17.8385C228.891 -5.08968 233.185 -28.5895 235.192 -52.2124C237.215 -75.8547 236.947 -99.6553 234.42 -123.137C231.908 -146.639 227.133 -169.857 220.231 -192.327C213.325 -214.831 204.273 -236.602 193.219 -257.263C182.165 -277.925 169.163 -297.465 154.426 -315.549C139.689 -333.633 123.22 -350.226 105.361 -365.115C100.061 -369.534 99.5919 -377.304 104.011 -382.604C108.43 -387.904 116.056 -388.749 121.375 -384.314C121.51 -384.204 121.627 -384.109 121.747 -383.979L121.782 -383.983Z" fill="url(#paint14_linear_426_18)"/>
<path d="M146.105 -815.029C192.011 -796.184 236.088 -772.999 277.472 -745.881C318.839 -718.715 357.466 -687.633 392.695 -653.181C427.924 -618.729 459.709 -580.923 487.586 -540.56C515.446 -500.15 539.351 -457.2 558.914 -412.426C578.478 -367.651 593.716 -321.101 604.404 -273.646C615.076 -226.144 621.151 -177.755 622.496 -129.318C623.842 -80.8814 620.506 -32.3806 612.565 15.2047C604.591 62.8845 592.029 109.602 575.282 154.65C590.093 108.928 600.541 61.8975 606.346 14.3627C612.199 -33.1557 613.393 -81.1316 609.979 -128.647C606.582 -176.21 598.577 -223.313 586.19 -269.082C573.82 -314.899 557.037 -359.446 536.224 -401.849C515.428 -444.3 490.571 -484.67 462.23 -522.177C433.857 -559.747 401.952 -594.471 367.044 -625.741C332.136 -657.01 294.335 -684.839 254.268 -708.746C214.202 -732.652 171.9 -752.572 128.151 -768.336C115.168 -773.016 108.97 -787.299 113.65 -800.282C118.33 -813.265 132.083 -820.071 145.113 -815.374C145.444 -815.259 145.727 -815.161 146.041 -814.998L146.105 -815.029Z" fill="url(#paint15_linear_426_18)"/>
<path d="M681.273 -541.36C708.936 -488.628 731.57 -433.316 748.695 -376.467C765.768 -319.586 777.301 -261.22 783.111 -202.375C788.922 -143.531 788.979 -84.2609 783.471 -25.6548C777.911 32.9821 766.756 90.9032 750.203 147.152C733.65 203.401 711.752 257.948 684.973 309.815C658.143 361.713 626.402 410.88 590.278 456.444C554.153 502.007 513.676 544.018 469.671 581.636C425.564 619.315 377.981 652.57 327.839 681.064C376.721 650.457 422.602 615.284 464.604 576.065C506.637 536.898 544.741 493.717 578.254 447.405C611.818 401.063 640.792 351.589 664.71 299.961C688.679 248.302 707.612 194.406 721.187 139.372C734.814 84.3087 743.104 28.0258 745.982 -28.3138C748.88 -84.7356 746.335 -141.266 738.365 -196.936C730.395 -252.607 717.113 -307.347 698.722 -360.228C680.33 -413.109 656.809 -464.05 628.752 -512.287C620.428 -526.604 625.747 -544.514 640.064 -552.838C654.38 -561.163 672.272 -556.811 680.628 -542.443C680.843 -542.082 681.027 -541.773 681.191 -541.381L681.273 -541.36Z" fill="url(#paint16_linear_426_18)"/>
<path d="M76.0369 -1156.71C143.91 -1141.89 210.317 -1120.64 273.966 -1093.31C337.605 -1065.92 398.417 -1032.45 455.364 -993.518C512.312 -954.583 565.326 -910.186 613.572 -861.313C661.808 -812.372 705.208 -758.966 743.065 -701.99C780.923 -645.015 813.25 -584.538 839.523 -521.709C865.784 -458.812 885.923 -393.573 899.553 -327.118C913.184 -260.664 920.376 -192.984 920.996 -125.446C921.593 -57.7699 915.63 9.6946 903.493 75.8754C912.797 9.23574 915.768 -58.146 912.217 -125.095C908.734 -192.033 898.717 -258.469 882.459 -323.15C866.213 -387.901 843.725 -450.897 815.52 -510.989C787.326 -571.151 753.356 -628.489 714.353 -681.892C675.36 -735.364 631.276 -784.981 583.082 -829.803C534.831 -874.705 482.4 -914.823 426.669 -949.449C370.939 -984.075 312.056 -1013.25 251.003 -1036.47C189.95 -1059.69 126.785 -1076.87 62.634 -1087.97C43.5961 -1091.27 31.579 -1109.45 34.8752 -1128.49C38.1714 -1147.53 55.4788 -1160.26 74.5858 -1156.95C75.0695 -1156.87 75.4841 -1156.8 75.9566 -1156.66L76.0369 -1156.71Z" fill="url(#paint17_linear_426_18)"/>
<path d="M784.214 -1143.14C850.26 -1083 910.54 -1016.65 963.843 -945.303C1017.09 -873.887 1063.29 -797.534 1101.67 -717.571C1140.05 -637.609 1170.54 -554.094 1192.84 -468.661C1215.08 -383.158 1229.08 -295.793 1234.6 -208.016C1240.13 -120.238 1237.24 -32.1186 1226.11 54.7285C1214.92 141.645 1195.4 227.233 1167.86 309.989C1140.31 392.746 1104.81 472.728 1062.08 548.328C1019.24 624.067 969.234 695.352 913.175 761.24C966.375 693.02 1013 619.903 1052.08 543.075C1091.24 466.303 1122.79 385.89 1146.27 303.418C1169.81 220.877 1185.26 136.277 1192.49 51.2348C1199.77 -33.8775 1198.81 -119.56 1189.71 -204.095C1180.67 -288.701 1163.48 -372.287 1138.63 -453.176C1113.77 -534.192 1081.18 -612.567 1041.39 -686.949C1001.59 -761.33 954.788 -831.673 901.735 -896.776C848.682 -961.879 789.394 -1021.61 725.1 -1075.21C706.021 -1091.12 704.331 -1119.1 720.24 -1138.17C736.148 -1157.25 763.601 -1160.3 782.75 -1144.33C783.238 -1143.93 783.656 -1143.59 784.088 -1143.13L784.214 -1143.14Z" fill="url(#paint18_linear_426_18)"/>
<path d="M583.224 -1553.5C675.811 -1505.67 763.776 -1449.1 845.388 -1384.8C926.957 -1320.4 1002.08 -1248.3 1069.47 -1169.78C1136.86 -1091.26 1196.44 -1006.35 1247.37 -916.809C1298.26 -827.171 1340.41 -732.943 1373.14 -635.694C1405.87 -538.446 1429.23 -438.272 1442.9 -337.04C1456.53 -235.713 1460.39 -133.37 1454.34 -31.7938C1448.28 69.7826 1432.43 170.636 1407.11 268.732C1381.7 367.019 1346.87 462.452 1303.59 553.629C1342.94 460.688 1373.41 364.213 1394.25 265.832C1415.19 167.494 1426.47 67.3467 1428.03 -32.6812C1429.63 -132.805 1421.5 -232.809 1403.96 -330.826C1386.47 -428.939 1359.51 -525.205 1323.73 -617.722C1288 -710.335 1243.39 -799.338 1190.96 -882.991C1138.48 -966.781 1078.09 -1045.26 1010.79 -1117.07C943.48 -1188.87 869.495 -1254.01 790.05 -1311.36C710.606 -1368.7 625.756 -1418.12 537.118 -1459.1C510.813 -1471.27 500.462 -1502.29 512.629 -1528.59C524.796 -1554.89 554.813 -1566.61 581.213 -1554.4C581.883 -1554.1 582.458 -1553.84 583.085 -1553.45L583.224 -1553.5Z" fill="url(#paint19_linear_426_18)"/>
<path d="M161.431 -1928.62C278.601 -1907.29 393.643 -1874.85 504.325 -1831.84C614.992 -1788.71 721.18 -1735.02 821.074 -1671.72C920.969 -1608.42 1014.45 -1535.53 1100.03 -1454.68C1185.6 -1373.72 1263.15 -1284.82 1331.42 -1189.47C1399.69 -1094.13 1458.69 -992.449 1507.46 -886.38C1556.21 -780.192 1594.62 -669.626 1621.95 -556.59C1649.28 -443.554 1665.65 -328.031 1670.75 -212.359C1675.82 -96.4495 1669.64 19.4901 1652.81 133.6C1664.76 18.8735 1665.82 -96.7454 1655.73 -211.233C1645.76 -325.705 1624.62 -438.927 1592.9 -548.769C1561.19 -658.73 1518.89 -765.312 1466.98 -866.577C1415.07 -967.962 1353.45 -1064.16 1283.43 -1153.32C1213.43 -1242.6 1134.93 -1324.97 1049.68 -1398.88C964.328 -1472.92 872.102 -1538.51 774.55 -1594.5C676.998 -1650.49 574.372 -1696.96 468.385 -1733.09C362.397 -1769.22 253.151 -1794.87 142.581 -1810.05C109.768 -1814.56 88.0916 -1844.99 92.5998 -1877.81C97.108 -1910.62 125.998 -1933.46 158.931 -1928.94C159.764 -1928.83 160.479 -1928.74 161.297 -1928.52L161.431 -1928.62Z" fill="url(#paint20_linear_426_18)"/>
<path d="M344.799 -2525.63C499.938 -2491.75 651.724 -2443.18 797.209 -2380.72C942.668 -2318.1 1081.67 -2241.61 1211.83 -2152.61C1342 -2063.62 1463.17 -1962.14 1573.45 -1850.43C1683.7 -1738.56 1782.9 -1616.49 1869.44 -1486.26C1955.97 -1356.03 2029.86 -1217.8 2089.91 -1074.19C2149.94 -930.427 2195.97 -781.309 2227.12 -629.414C2258.28 -477.519 2274.72 -322.821 2276.13 -168.448C2277.5 -13.7599 2263.87 140.445 2236.13 291.715C2257.39 139.396 2264.18 -14.6196 2256.07 -167.646C2248.11 -320.647 2225.21 -472.501 2188.05 -620.344C2150.91 -768.345 2099.51 -912.335 2035.05 -1049.69C1970.6 -1187.2 1892.96 -1318.26 1803.81 -1440.33C1714.68 -1562.55 1613.92 -1675.96 1503.76 -1778.41C1393.47 -1881.04 1273.63 -1972.74 1146.24 -2051.88C1018.86 -2131.03 884.272 -2197.72 744.722 -2250.8C605.172 -2303.87 460.794 -2343.14 314.164 -2368.51C270.648 -2376.05 243.181 -2417.61 250.715 -2461.13C258.249 -2504.64 297.809 -2533.73 341.482 -2526.17C342.587 -2525.99 343.535 -2525.84 344.615 -2525.5L344.799 -2525.63Z" fill="url(#paint21_linear_426_18)"/>
<path d="M132.432 68.1671C121.82 84.9416 109.625 100.694 96.0679 115.112C82.4935 129.521 67.5666 142.578 51.5481 154.063C35.5296 165.547 18.4293 175.442 0.593128 183.62C-17.2605 191.788 -35.8401 198.221 -54.8365 202.818C-73.833 207.414 -93.2289 210.184 -112.665 211.098C-132.118 212.002 -151.602 211.034 -170.775 208.2C-189.949 205.365 -208.823 200.682 -227.017 194.249C-245.245 187.796 -262.775 179.603 -279.358 169.877C-262.375 178.887 -244.575 186.269 -226.253 191.858C-207.941 197.464 -189.125 201.267 -170.17 203.222C-151.198 205.188 -132.088 205.306 -113.197 203.606C-94.29 201.915 -75.5759 198.398 -57.4267 193.145C-39.26 187.901 -21.6309 180.914 -4.88744 172.355C11.8832 163.788 27.7779 153.631 42.5204 142.052C57.2628 130.473 70.851 117.516 83.0513 103.393C95.2515 89.2702 106.037 73.9901 115.285 57.8513C118.031 53.062 124.088 51.6127 128.877 54.358C133.666 57.1034 135.392 62.9938 132.637 67.8005C132.568 67.9227 132.51 68.0275 132.424 68.1399L132.432 68.1671Z" fill="url(#paint22_linear_426_18)"/>
<path d="M54.2336 247.281C32.2617 258.807 9.21521 268.238 -14.4721 275.373C-38.1722 282.487 -62.4916 287.292 -87.0101 289.713C-111.529 292.134 -136.225 292.158 -160.644 289.863C-185.076 287.546 -209.21 282.898 -232.647 276.001C-256.084 269.105 -278.811 259.98 -300.423 248.822C-322.047 237.643 -342.533 224.418 -361.518 209.366C-380.503 194.314 -398.008 177.448 -413.682 159.113C-429.381 140.735 -443.238 120.909 -455.11 100.016C-442.357 120.384 -427.701 139.501 -411.36 157.002C-395.041 174.516 -377.049 190.392 -357.752 204.356C-338.443 218.341 -317.829 230.414 -296.317 240.379C-274.792 250.366 -252.336 258.255 -229.405 263.911C-206.462 269.589 -183.011 273.043 -159.536 274.242C-136.027 275.45 -112.473 274.39 -89.2763 271.069C-66.0802 267.748 -43.2721 262.214 -21.2382 254.551C0.795598 246.888 22.0209 237.087 42.1197 225.397C48.085 221.928 55.5474 224.145 59.0161 230.11C62.4848 236.075 60.6713 243.53 54.6846 247.012C54.5343 247.101 54.4054 247.178 54.2423 247.246L54.2336 247.281Z" fill="url(#paint23_linear_426_18)"/>
<path d="M331.931 -83.0104C330.726 -53.2607 326.699 -23.6516 319.902 5.24614C313.075 34.1443 303.477 62.301 291.282 89.2339C279.087 116.167 264.294 141.846 247.257 165.846C230.191 189.847 210.88 212.138 189.65 232.357C168.42 252.575 145.301 270.72 120.739 286.484C96.1469 302.249 70.1108 315.604 43.0776 326.303C16.0443 337.001 -11.9857 345.073 -40.4446 350.361C-68.9636 355.65 -97.8814 358.154 -126.717 357.956C-97.8986 356.924 -69.2383 353.163 -41.2461 346.682C-13.2534 340.23 14.0412 331.058 40.1307 319.383C66.2502 307.707 91.1647 293.528 114.428 277.152C137.722 260.775 159.394 242.17 179.031 221.734C198.697 201.298 216.358 178.999 231.689 155.322C247.049 131.616 260.08 106.501 270.546 80.4026C281.013 54.3039 288.947 27.2805 294.203 -0.215593C299.46 -27.7117 302.01 -55.65 301.92 -83.5515C301.895 -91.8319 308.676 -98.2572 316.956 -98.2828C325.237 -98.3085 331.896 -91.9508 331.922 -83.6404C331.925 -83.4304 331.927 -83.2504 331.9 -83.04L331.931 -83.0104Z" fill="url(#paint24_linear_426_18)"/>
<path d="M479.571 -187.842C484.877 -148.499 486.445 -108.688 484.211 -69.1692C481.937 -29.643 475.853 9.55112 466.076 47.7396C456.299 85.9282 442.82 123.072 426.006 158.53C409.154 193.996 388.958 227.738 365.763 259.202C342.568 290.666 316.412 319.844 287.81 346.23C259.168 372.625 228.073 396.189 195.053 416.496C162.034 436.803 127.097 453.892 90.9526 467.424C54.7295 480.972 17.3379 490.955 -20.5711 497.372C17.0306 489.344 53.7931 477.771 89.0484 462.779C124.311 447.827 158.028 429.464 189.582 408.092C221.176 386.714 250.607 362.327 277.362 335.437C304.157 308.54 328.307 279.093 349.36 247.712C370.452 216.324 388.478 182.955 403.127 148.317C417.808 113.631 429.103 77.6372 436.804 40.9443C444.505 4.25135 448.665 -33.0693 449.202 -70.3908C449.738 -107.712 446.618 -144.988 440.04 -181.604C438.089 -192.471 445.506 -202.478 456.372 -204.429C467.239 -206.38 477.456 -199.573 479.414 -188.667C479.466 -188.392 479.511 -188.156 479.525 -187.874L479.571 -187.842Z" fill="url(#paint25_linear_426_18)"/>
<path d="M450.966 417.564C417.556 454.256 380.694 487.745 341.058 517.358C301.382 546.939 258.963 572.606 214.54 593.927C170.116 615.249 123.719 632.186 76.2563 644.577C28.7546 656.936 -19.7816 664.709 -68.5467 667.779C-117.312 670.849 -166.267 669.247 -214.516 663.06C-262.803 656.842 -310.351 646 -356.327 630.698C-402.303 615.396 -446.738 595.673 -488.737 571.936C-530.815 548.136 -570.418 520.352 -607.022 489.209C-569.122 518.764 -528.502 544.667 -485.819 566.38C-443.168 588.132 -398.494 605.663 -352.677 618.706C-306.82 631.782 -259.821 640.37 -212.575 644.384C-165.29 648.43 -117.689 647.894 -70.7246 642.84C-23.7215 637.816 22.7152 628.267 67.6536 614.462C112.662 600.651 156.204 582.546 197.527 560.438C238.85 538.33 277.93 512.327 314.098 482.853C350.266 453.379 383.453 420.441 413.23 384.722C422.068 374.123 437.609 373.184 448.208 382.022C458.808 390.86 460.499 406.112 451.629 416.75C451.408 417.021 451.219 417.254 450.959 417.493L450.966 417.564Z" fill="url(#paint26_linear_426_18)"/>
<path d="M10.7632 826.857C-48.2508 834.816 -107.968 837.168 -167.246 833.816C-226.535 830.405 -285.326 821.28 -342.609 806.614C-399.892 791.948 -455.607 771.73 -508.795 746.509C-561.994 721.23 -612.607 690.938 -659.803 656.145C-706.998 621.352 -750.765 582.118 -790.345 539.215C-829.937 496.253 -865.283 449.61 -895.744 400.08C-926.204 350.551 -951.838 298.146 -972.137 243.929C-992.458 189.594 -1007.43 133.507 -1017.06 76.6433C-1005.02 133.046 -987.656 188.19 -965.168 241.073C-942.74 293.967 -915.195 344.541 -883.138 391.873C-851.07 439.263 -814.49 483.411 -774.155 523.544C-733.809 563.735 -689.639 599.96 -642.568 631.539C-595.486 663.178 -545.432 690.217 -493.475 712.191C-441.447 734.212 -387.456 751.155 -332.416 762.706C-277.377 774.257 -221.396 780.498 -165.414 781.302C-109.431 782.107 -53.5178 777.426 1.40626 767.56C17.7067 764.634 32.7171 775.758 35.6433 792.059C38.5695 808.359 28.3602 823.683 12.0008 826.621C11.5883 826.7 11.2347 826.767 10.8109 826.787L10.7632 826.857Z" fill="url(#paint27_linear_426_18)"/>
<path d="M796.01 468.585C758.868 527.295 716.186 582.429 668.737 632.893C621.227 683.323 568.983 729.023 512.918 769.219C456.853 809.416 397.002 844.048 334.575 872.669C272.088 901.257 207.059 923.774 140.572 939.861C74.084 955.949 6.19825 965.642 -61.8273 968.842C-129.914 972.007 -198.106 968.618 -265.215 958.698C-332.323 948.778 -398.382 932.388 -462.058 909.871C-525.858 887.286 -587.214 858.609 -645.252 824.568C-585.814 856.103 -523.512 881.941 -459.386 901.502C-395.293 921.123 -329.438 934.433 -263.097 941.278C-196.695 948.157 -129.807 948.571 -63.6917 942.62C2.48466 936.703 67.9837 924.393 131.506 906.006C195.09 887.654 256.791 863.198 315.393 833.241C374.091 803.256 429.722 767.71 481.321 727.182C532.919 686.655 580.478 641.304 623.179 591.875C665.88 542.445 703.628 488.965 735.999 432.479C745.607 415.717 766.806 410.644 783.568 420.253C800.331 429.862 806.37 450.478 796.727 467.301C796.488 467.729 796.284 468.096 795.983 468.489L796.01 468.585Z" fill="url(#paint28_linear_426_18)"/>
<path d="M1091.57 -511.082C1116.74 -432.125 1134.4 -350.85 1144.13 -268.798C1153.78 -186.716 1155.48 -103.936 1149.23 -21.8845C1142.97 60.1671 1128.72 141.412 1107.01 220.402C1085.22 299.422 1055.94 376.109 1019.66 449.199C983.379 522.29 940.185 591.755 890.95 656.369C841.637 721.012 786.253 780.727 725.733 834.443C665.212 888.159 599.585 935.955 530.185 976.877C460.629 1017.86 387.378 1051.94 311.772 1078.87C386.163 1048.74 457.543 1011.62 524.586 968.017C591.659 924.495 654.316 874.523 711.438 819.15C768.638 763.748 820.303 702.945 865.559 637.967C910.893 572.959 949.866 503.668 981.771 431.525C1013.75 359.352 1038.72 284.218 1056.28 207.698C1073.88 131.071 1084.06 52.9807 1086.59 -25.2436C1089.12 -103.468 1084.14 -181.699 1071.71 -258.619C1059.29 -335.538 1039.36 -411.038 1012.57 -483.928C1004.62 -505.561 1016.24 -528.822 1037.87 -536.771C1059.5 -544.721 1082.97 -534.432 1090.95 -512.721C1091.16 -512.175 1091.34 -511.706 1091.47 -511.13L1091.57 -511.082Z" fill="url(#paint29_linear_426_18)"/>
<path d="M541.041 1129.41C461.942 1170.9 378.975 1204.86 293.7 1230.54C208.38 1256.15 120.83 1273.45 32.5636 1282.17C-55.7029 1290.88 -144.608 1290.97 -232.518 1282.71C-320.473 1274.37 -407.355 1257.63 -491.728 1232.8C-576.102 1207.98 -657.921 1175.13 -735.722 1134.96C-813.569 1094.71 -887.32 1047.1 -955.665 992.917C-1024.01 938.73 -1087.03 878.014 -1143.45 812.007C-1199.97 745.846 -1249.86 674.471 -1292.6 599.258C-1246.69 672.582 -1193.93 741.402 -1135.1 804.406C-1076.35 867.456 -1011.58 924.612 -942.108 974.881C-872.594 1025.23 -798.383 1068.69 -720.941 1104.56C-643.452 1140.52 -562.608 1168.92 -480.058 1189.28C-397.463 1209.72 -313.038 1222.16 -228.529 1226.47C-143.896 1230.82 -59.1012 1227 24.4051 1215.05C107.911 1203.09 190.02 1183.17 269.342 1155.58C348.664 1128 425.075 1092.71 497.431 1050.63C518.906 1038.14 545.771 1046.12 558.258 1067.6C570.745 1089.07 564.217 1115.91 542.665 1128.44C542.123 1128.76 541.66 1129.04 541.072 1129.29L541.041 1129.41Z" fill="url(#paint30_linear_426_18)"/>
<path d="M995.398 1080.89C918.789 1151.54 835.544 1214.85 747.204 1269.55C658.788 1324.17 565.35 1370.1 468.513 1406.57C371.676 1443.05 271.513 1469.99 169.953 1487.22C68.3165 1504.39 -34.6443 1511.76 -137.223 1509.26C-239.802 1506.76 -341.924 1494.45 -441.728 1472.67C-541.607 1450.83 -639.094 1419.44 -732.476 1379.02C-825.857 1338.59 -915.205 1289.2 -998.724 1231.85C-1082.39 1174.36 -1160.16 1108.99 -1231.03 1037.13C-1157.16 1105.9 -1076.92 1167.52 -991.602 1220.76C-906.358 1274.07 -816.107 1318.92 -722.644 1354.6C-629.105 1390.34 -532.353 1416.91 -434.249 1433.96C-336.07 1451.08 -236.39 1458.67 -137.215 1456.69C-37.9646 1454.78 60.9292 1443.3 157.467 1422.65C254.154 1401.99 348.558 1372.09 439.052 1333.4C529.547 1294.71 616.061 1247.47 697.12 1192.43C778.178 1137.39 853.633 1074.56 922.464 1005.28C942.894 984.725 975.578 985.606 996.134 1006.04C1016.69 1026.46 1017.44 1058.68 996.935 1079.31C996.422 1079.84 995.983 1080.29 995.396 1080.74L995.398 1080.89Z" fill="url(#paint31_linear_426_18)"/>
<path d="M1492.16 812.836C1432.04 915.643 1362.21 1012.65 1283.94 1101.95C1205.56 1191.19 1118.79 1272.61 1025.14 1344.83C931.49 1417.05 831.022 1479.97 725.783 1532.74C620.437 1585.45 510.375 1627.92 397.428 1659.46C284.481 1691 168.756 1711.67 52.4034 1721.22C-64.056 1730.72 -181.089 1728.99 -296.655 1716.01C-412.221 1703.03 -526.376 1678.9 -636.817 1644.13C-747.472 1609.26 -854.306 1563.8 -955.776 1508.95C-852.057 1559.42 -743.773 1599.96 -632.739 1629.64C-521.759 1659.42 -408.137 1678.28 -294.069 1686.04C-179.894 1693.85 -65.2747 1690.56 47.6405 1676.41C160.663 1662.31 272.142 1637.3 379.871 1602C487.707 1566.75 591.954 1521.16 690.561 1466.33C789.33 1411.45 882.513 1347.22 968.489 1274.7C1054.47 1202.18 1133.23 1121.64 1203.43 1034.4C1273.63 947.163 1335.1 853.279 1387.18 754.569C1402.64 725.276 1438.66 715.317 1467.95 730.776C1497.24 746.236 1508.82 781.195 1493.31 810.595C1492.92 811.342 1492.6 811.982 1492.11 812.674L1492.16 812.836Z" fill="url(#paint32_linear_426_18)"/>
<path d="M1475.2 -1389.3C1556.07 -1284.6 1626.93 -1172.31 1686.33 -1054.54C1745.63 -936.674 1793.38 -813.422 1828.79 -686.917C1864.21 -560.413 1887.2 -430.756 1897.75 -300.406C1908.21 -169.969 1906.15 -38.9389 1891.64 90.515C1877.12 219.969 1850.25 347.76 1811.67 471.572C1772.99 595.471 1722.51 715.29 1661.05 828.915C1599.59 942.541 1527.24 1050.07 1445.47 1149.35C1363.51 1248.81 1272.23 1339.93 1173.51 1421.61C1268.66 1335.79 1355.47 1241.13 1432.24 1139.12C1509.09 1037.21 1575.8 928.035 1631.26 813.779C1686.82 699.437 1731.12 580.015 1763.53 457.829C1796.05 335.557 1816.68 210.332 1825.15 84.6875C1833.72 -41.0444 1830.15 -167.385 1814.71 -291.761C1799.28 -416.325 1771.9 -539.027 1732.99 -657.755C1694.07 -776.483 1643.9 -891.124 1583.26 -999.729C1522.62 -1108.33 1451.5 -1210.71 1371.51 -1305.43C1347.77 -1333.54 1352.5 -1374.78 1380.61 -1398.51C1408.72 -1422.25 1449.55 -1419.63 1473.37 -1391.42C1473.98 -1390.71 1474.51 -1390.11 1475.01 -1389.31L1475.2 -1389.3Z" fill="url(#paint33_linear_426_18)"/>
<path d="M2087.57 -439.427C2106.81 -296.81 2112.49 -152.494 2104.39 -9.23858C2096.15 134.044 2074.09 276.123 2038.65 414.556C2003.21 552.989 1954.35 687.635 1893.4 816.172C1832.31 944.737 1759.1 1067.05 1675.02 1181.11C1590.93 1295.16 1496.12 1400.93 1392.44 1496.59C1288.61 1592.27 1175.89 1677.68 1056.19 1751.3C936.497 1824.91 809.852 1886.86 678.828 1935.91C547.519 1985.02 411.975 2021.21 274.555 2044.48C410.861 2015.37 544.125 1973.42 671.925 1919.07C799.753 1864.87 921.974 1798.31 1036.36 1720.83C1150.89 1643.34 1257.58 1554.93 1354.56 1457.46C1451.69 1359.96 1539.24 1253.21 1615.55 1139.46C1692.01 1025.67 1757.36 904.712 1810.46 779.147C1863.68 653.413 1904.62 522.935 1932.54 389.923C1960.46 256.911 1975.54 121.624 1977.48 -13.6669C1979.42 -148.957 1968.11 -284.082 1944.27 -416.815C1937.2 -456.207 1964.08 -492.482 2003.47 -499.554C2042.87 -506.626 2079.9 -481.953 2087 -442.418C2087.19 -441.421 2087.35 -440.567 2087.4 -439.542L2087.57 -439.427Z" fill="url(#paint34_linear_426_18)"/>
<path d="M1990.45 1189.34C1905.55 1323.53 1808 1449.55 1699.54 1564.9C1590.95 1680.17 1471.53 1784.62 1343.38 1876.5C1215.24 1968.38 1078.43 2047.54 935.744 2112.96C792.915 2178.3 644.278 2229.77 492.306 2266.54C340.335 2303.31 185.167 2325.47 29.6802 2332.78C-125.946 2340.02 -281.815 2332.27 -435.205 2309.6C-588.596 2286.92 -739.587 2249.46 -885.134 2197.99C-1030.96 2146.37 -1171.2 2080.82 -1303.86 2003.01C-1168 2075.09 -1025.6 2134.15 -879.025 2178.86C-732.528 2223.71 -582.001 2254.13 -430.364 2269.78C-278.588 2285.5 -125.702 2286.45 25.4188 2272.85C176.679 2259.32 326.391 2231.18 471.585 2189.16C616.919 2147.21 757.952 2091.31 891.899 2022.84C1026.06 1954.3 1153.22 1873.05 1271.16 1780.42C1389.1 1687.78 1497.81 1584.12 1595.41 1471.14C1693.01 1358.16 1779.29 1235.92 1853.28 1106.81C1875.24 1068.5 1923.7 1056.9 1962.01 1078.86C2000.33 1100.83 2014.13 1147.95 1992.09 1186.4C1991.54 1187.38 1991.08 1188.22 1990.39 1189.12L1990.45 1189.34Z" fill="url(#paint35_linear_426_18)"/>
<path d="M186.394 1949.39C55.2845 1967.08 -77.3871 1972.3 -209.083 1964.85C-340.804 1957.28 -471.419 1937 -598.682 1904.42C-725.945 1871.84 -849.726 1826.92 -967.892 1770.89C-1086.08 1714.73 -1198.53 1647.43 -1303.38 1570.13C-1408.23 1492.83 -1505.47 1405.67 -1593.4 1310.35C-1681.36 1214.9 -1759.89 1111.28 -1827.56 1001.24C-1895.24 891.2 -1952.18 774.773 -1997.28 654.322C-2042.43 533.609 -2075.7 409.001 -2097.08 282.669C-2070.33 407.977 -2031.76 530.488 -1981.8 647.976C-1931.97 765.489 -1870.78 877.849 -1799.56 983.004C-1728.31 1088.29 -1647.04 1186.37 -1557.43 1275.53C-1467.8 1364.83 -1369.67 1445.31 -1265.09 1515.46C-1160.49 1585.75 -1049.29 1645.83 -933.854 1694.64C-818.266 1743.57 -698.316 1781.21 -576.036 1806.87C-453.757 1832.54 -329.386 1846.4 -205.012 1848.19C-80.6381 1849.97 43.5829 1839.58 165.606 1817.66C201.82 1811.15 235.168 1835.87 241.669 1872.08C248.17 1908.3 225.488 1942.34 189.143 1948.87C188.227 1949.04 187.441 1949.19 186.5 1949.24L186.394 1949.39Z" fill="url(#paint36_linear_426_18)"/>
<path d="M-133 2908C1523.85 2908 2867 1564.85 2867 -92C2867 -1748.85 1523.85 -3092 -133 -3092C-1789.85 -3092 -3133 -1748.85 -3133 -92C-3133 1564.85 -1789.85 2908 -133 2908Z" fill="url(#paint37_radial_426_18)" fill-opacity="0.27"/>
</g>
<defs>
<radialGradient id="paint0_radial_426_18" cx="0" cy="0" r="1" gradientUnits="userSpaceOnUse" gradientTransform="translate(-133 -92) scale(3000)">
<stop stop-color="#CE7019"/>
<stop offset="1" stop-color="#310365"/>
</radialGradient>
<radialGradient id="paint1_radial_426_18" cx="0" cy="0" r="1" gradientUnits="userSpaceOnUse" gradientTransform="translate(-133 -92) scale(2000)">
<stop stop-color="#CE7019"/>
<stop offset="1" stop-color="#310365"/>
</radialGradient>
<radialGradient id="paint2_radial_426_18" cx="0" cy="0" r="1" gradientUnits="userSpaceOnUse" gradientTransform="translate(-133 -92) scale(1800)">
<stop stop-color="#CE7019"/>
<stop offset="1" stop-color="#310365"/>
</radialGradient>
<radialGradient id="paint3_radial_426_18" cx="0" cy="0" r="1" gradientUnits="userSpaceOnUse" gradientTransform="translate(-133 -92) scale(1700)">
<stop stop-color="#CE7019"/>
<stop offset="1" stop-color="#310365"/>
</radialGradient>
<radialGradient id="paint4_radial_426_18" cx="0" cy="0" r="1" gradientUnits="userSpaceOnUse" gradientTransform="translate(-133 -92) scale(1651)">
<stop stop-color="#CE7019"/>
<stop offset="1" stop-color="#310365"/>
</radialGradient>
<radialGradient id="paint5_radial_426_18" cx="0" cy="0" r="1" gradientUnits="userSpaceOnUse" gradientTransform="translate(-133 -92) scale(1450)">
<stop stop-color="#CE7019"/>
<stop offset="1" stop-color="#310365"/>
</radialGradient>
<radialGradient id="paint6_radial_426_18" cx="0" cy="0" r="1" gradientUnits="userSpaceOnUse" gradientTransform="translate(-133 -92) scale(1250)">
<stop stop-color="#CE7019"/>
<stop offset="1" stop-color="#310365"/>
</radialGradient>
<radialGradient id="paint7_radial_426_18" cx="0" cy="0" r="1" gradientUnits="userSpaceOnUse" gradientTransform="translate(-133 -92) scale(1175)">
<stop stop-color="#CE7019"/>
<stop offset="1" stop-color="#310365"/>
</radialGradient>
<radialGradient id="paint8_radial_426_18" cx="0" cy="0" r="1" gradientUnits="userSpaceOnUse" gradientTransform="translate(-133 -92) scale(900)">
<stop stop-color="#CE7019"/>
<stop offset="1" stop-color="#310365"/>
</radialGradient>
<radialGradient id="paint9_radial_426_18" cx="0" cy="0" r="1" gradientUnits="userSpaceOnUse" gradientTransform="translate(-133 -92) scale(750)">
<stop stop-color="#CE7019"/>
<stop offset="1" stop-color="#310365"/>
</radialGradient>
<radialGradient id="paint10_radial_426_18" cx="0" cy="0" r="1" gradientUnits="userSpaceOnUse" gradientTransform="translate(-133 -92) scale(500)">
<stop stop-color="#CE7019"/>
<stop offset="1" stop-color="#310365"/>
</radialGradient>
<radialGradient id="paint11_radial_426_18" cx="0" cy="0" r="1" gradientUnits="userSpaceOnUse" gradientTransform="translate(-133 -92) scale(380)">
<stop stop-color="#CE7019"/>
<stop offset="1" stop-color="#310365"/>
</radialGradient>
<radialGradient id="paint12_radial_426_18" cx="0" cy="0" r="1" gradientUnits="userSpaceOnUse" gradientTransform="translate(-133 -92) scale(250)">
<stop stop-color="#CE7019"/>
<stop offset="1" stop-color="#310365"/>
</radialGradient>
<linearGradient id="paint13_linear_426_18" x1="-86.9161" y1="-14.6934" x2="72.8505" y2="-109.933" gradientUnits="userSpaceOnUse">
<stop stop-color="#803A3F"/>
<stop offset="1" stop-color="#310365"/>
</linearGradient>
<linearGradient id="paint14_linear_426_18" x1="12.3021" y1="26.5057" x2="257.213" y2="-273.785" gradientUnits="userSpaceOnUse">
<stop stop-color="#803A3F"/>
<stop offset="1" stop-color="#310365"/>
</linearGradient>
<linearGradient id="paint15_linear_426_18" x1="221.141" y1="31.3251" x2="476.013" y2="-700.567" gradientUnits="userSpaceOnUse">
<stop stop-color="#803A3F"/>
<stop offset="1" stop-color="#310365"/>
</linearGradient>
<linearGradient id="paint16_linear_426_18" x1="97.4193" y1="294.532" x2="896.252" y2="-181.668" gradientUnits="userSpaceOnUse">
<stop stop-color="#803A3F"/>
<stop offset="1" stop-color="#310365"/>
</linearGradient>
<linearGradient id="paint17_linear_426_18" x1="385.246" y1="-8.06221" x2="558.718" y2="-1079.1" gradientUnits="userSpaceOnUse">
<stop stop-color="#803A3F"/>
<stop offset="1" stop-color="#310365"/>
</linearGradient>
<linearGradient id="paint18_linear_426_18" x1="390.088" y1="334.62" x2="1271.77" y2="-746.428" gradientUnits="userSpaceOnUse">
<stop stop-color="#803A3F"/>
<stop offset="1" stop-color="#310365"/>
</linearGradient>
<linearGradient id="paint19_linear_426_18" x1="585.295" y1="230.815" x2="1252.44" y2="-1253.66" gradientUnits="userSpaceOnUse">
<stop stop-color="#803A3F"/>
<stop offset="1" stop-color="#310365"/>
</linearGradient>
<linearGradient id="paint20_linear_426_18" x1="759.903" y1="20.8001" x2="993.023" y2="-1824.53" gradientUnits="userSpaceOnUse">
<stop stop-color="#803A3F"/>
<stop offset="1" stop-color="#310365"/>
</linearGradient>
<linearGradient id="paint21_linear_426_18" x1="1051.56" y1="99.8576" x2="1448.07" y2="-2348.24" gradientUnits="userSpaceOnUse">
<stop stop-color="#803A3F"/>
<stop offset="1" stop-color="#310365"/>
</linearGradient>
<linearGradient id="paint22_linear_426_18" x1="-206.179" y1="38.9385" x2="64.4271" y2="190.175" gradientUnits="userSpaceOnUse">
<stop stop-color="#803A3F"/>
<stop offset="1" stop-color="#310365"/>
</linearGradient>
<linearGradient id="paint23_linear_426_18" x1="-294.055" y1="4.00816" x2="-95.6383" y2="336.855" gradientUnits="userSpaceOnUse">
<stop stop-color="#803A3F"/>
<stop offset="1" stop-color="#310365"/>
</linearGradient>
<linearGradient id="paint24_linear_426_18" x1="-129.858" y1="132.978" x2="335.096" y2="126.486" gradientUnits="userSpaceOnUse">
<stop stop-color="#803A3F"/>
<stop offset="1" stop-color="#310365"/>
</linearGradient>
<linearGradient id="paint25_linear_426_18" x1="-76.7855" y1="202.686" x2="532.233" y2="86.5098" gradientUnits="userSpaceOnUse">
<stop stop-color="#803A3F"/>
<stop offset="1" stop-color="#310365"/>
</linearGradient>
<linearGradient id="paint26_linear_426_18" x1="-370.011" y1="198.604" x2="230.571" y2="688.427" gradientUnits="userSpaceOnUse">
<stop stop-color="#803A3F"/>
<stop offset="1" stop-color="#310365"/>
</linearGradient>
<linearGradient id="paint27_linear_426_18" x1="-575.029" y1="-7.67829" x2="-400.765" y2="905.849" gradientUnits="userSpaceOnUse">
<stop stop-color="#803A3F"/>
<stop offset="1" stop-color="#310365"/>
</linearGradient>
<linearGradient id="paint28_linear_426_18" x1="-389.126" y1="366.284" x2="557.994" y2="895.612" gradientUnits="userSpaceOnUse">
<stop stop-color="#803A3F"/>
<stop offset="1" stop-color="#310365"/>
</linearGradient>
<linearGradient id="paint29_linear_426_18" x1="89.3858" y1="493.435" x2="1299.28" y2="33.8376" gradientUnits="userSpaceOnUse">
<stop stop-color="#803A3F"/>
<stop offset="1" stop-color="#310365"/>
</linearGradient>
<linearGradient id="paint30_linear_426_18" x1="-712.798" y1="253.629" x2="1.50187" y2="1451.88" gradientUnits="userSpaceOnUse">
<stop stop-color="#803A3F"/>
<stop offset="1" stop-color="#310365"/>
</linearGradient>
<linearGradient id="paint31_linear_426_18" x1="-682.017" y1="472.567" x2="484.755" y2="1607.2" gradientUnits="userSpaceOnUse">
<stop stop-color="#803A3F"/>
<stop offset="1" stop-color="#310365"/>
</linearGradient>
<linearGradient id="paint32_linear_426_18" x1="-544.388" y1="708.475" x2="1109.93" y2="1558.68" gradientUnits="userSpaceOnUse">
<stop stop-color="#803A3F"/>
<stop offset="1" stop-color="#310365"/>
</linearGradient>
<linearGradient id="paint33_linear_426_18" x1="520.257" y1="664.806" x2="2084.32" y2="-685.259" gradientUnits="userSpaceOnUse">
<stop stop-color="#803A3F"/>
<stop offset="1" stop-color="#310365"/>
</linearGradient>
<linearGradient id="paint34_linear_426_18" x1="70.7773" y1="976.238" x2="2278.47" y2="555.098" gradientUnits="userSpaceOnUse">
<stop stop-color="#803A3F"/>
<stop offset="1" stop-color="#310365"/>
</linearGradient>
<linearGradient id="paint35_linear_426_18" x1="-718.431" y1="955.507" x2="1446.42" y2="2165.4" gradientUnits="userSpaceOnUse">
<stop stop-color="#803A3F"/>
<stop offset="1" stop-color="#310365"/>
</linearGradient>
<linearGradient id="paint36_linear_426_18" x1="-1115.04" y1="95.3348" x2="-727.884" y2="2124.89" gradientUnits="userSpaceOnUse">
<stop stop-color="#803A3F"/>
<stop offset="1" stop-color="#310365"/>
</linearGradient>
<radialGradient id="paint37_radial_426_18" cx="0" cy="0" r="1" gradientUnits="userSpaceOnUse" gradientTransform="translate(-133 -92) scale(3000)">
<stop stop-color="#CE7019"/>
<stop offset="1" stop-color="#310365"/>
</radialGradient>
<clipPath id="clip0_426_18">
<rect width="2000" height="1500" fill="white" transform="translate(-133 -152)"/>
</clipPath>
</defs>
</svg>
